<svg width="500" height="500" xmlns="http://www.w3.org/2000/svg"><polyline fill="none" stroke="blue" stroke-width="2" points=" 1,94.0512444296243 2,94.0359027319131 3,94.0225550409676 4,94.0129088718058 5,94.0066257956224 6,94.0066576099386 7,94.0049742330975 8,94.0037015216184 9,94.0049383515409 10,94.008067334654 11,94.0124672636503 12,94.018303867016 13,94.0241720394641 14,94.0259507300821 15,94.0257749240701 16,94.0225889065573 17,94.015843149512 18,94.0052835430707 19,93.9916994660118 20,93.9781819020566 21,93.9837850623182 22,93.9933871036971 23,94.0061291571478 24,94.0210121278444 25,94.0367287821331 26,94.0521924323455 27,94.0665384775762 28,94.0784380996271 29,94.086538325941 30,94.0918919034899 31,94.0952260112078 32,94.0978783121261 33,94.1009987725037 34,94.1040978146726 35,94.1060934327447 36,94.1063203256505 37,94.1041417558759 38,94.1004190436742 39,94.0957573243794 40,94.0897978840541 41,94.0836204577247 42,94.0774912319134 43,94.0724123585994 44,94.0694057639462 45,94.0675522146098 46,94.0678015906432 47,94.0690951351104 48,94.0705609254065 49,94.069102592263 50,94.0632780795634 51,94.0511423998086 52,94.0359996392502 53,94.0276175606741 54,94.0159397949199 55,94.0041656470971 56,93.9946231205489 57,93.9902911044236 58,93.9905966042901 59,93.9948795563947 60,94.0008460655059 61,94.0071485776161 62,94.0124200972127 63,94.0148776600043 64,94.0123115421937 65,94.0064916090511 66,93.9991500624052 67,93.9926643211453 68,93.9903385919814 69,93.9902254800533 70,93.9941661343786 71,94.0010396520803 72,94.0069967996315 73,94.0103620244969 74,94.0092539360947 75,94.0051068535991 76,94.0000893411261 77,93.9971845032845 78,93.9968412738684 79,94.000934849458 80,94.0064171985939 81,94.0137683743164 82,94.0214089025836 83,94.0277115770146 84,94.0312578870701 85,94.033440815428 86,94.0342775640774 87,94.0351634979111 88,94.0343110672871 89,94.032364253539 90,94.0289492947305 91,94.0241693772036 92,94.018531639855 93,94.013344643871 94,94.0096702341384 95,94.0083418572445 96,94.0086739777813 97,94.0091675107549 98,94.0081371329133 99,94.0039316138659 100,93.9984204827859 101,93.9920008508616 102,93.9872981708708 103,93.9878864096372 104,93.9902923196722 105,93.99505013911 106,94.0024027450349 107,94.0104495731562 108,94.0160062815165 109,94.0169646945324 110,94.0120816650888 111,94.0010427111056 112,93.9859628421745 113,93.96817602196 114,93.9493711721514 115,93.9328830317817 116,93.9240949567958 117,93.920708172964 118,93.9209748914382 119,93.9230209189592 120,93.9250600950732 121,93.9282326406958 122,93.9315749849995 123,93.9356143875217 124,93.9394244168659 125,93.9423782387898 126,93.9457379593983 127,93.9493816810235 128,93.9532826799303 129,93.9574807582789 130,93.9668953823095 131,93.9764044349353 132,93.9844326020443 133,93.9915950905121 134,93.9983074638744 135,94.0042422647485 136,94.0081944700199 137,94.0116059737753 138,94.0158535195064 139,94.0216555189615 140,94.0297287671509 141,94.0391869142186 142,94.0493573324147 143,94.0576375695095 144,94.0633466617957 145,94.0661815247445 146,94.0652985105799 147,94.0616924072453 148,94.0550715106682 149,94.0470789228238 150,94.0380333053119 151,94.0301655874662 152,94.0223041725191 153,94.01445427989 154,94.0039838113107 155,93.9927461699354 156,93.9830728553109 157,93.9782313706817 158,93.9820503770235 159,93.9875532936107 160,93.9953651231714 161,94.003910874243 162,94.0116812578267 163,94.0174992097497 164,94.0203381122312 165,94.0173516106477 166,94.013005461384 167,94.0152747991457 168,94.0183160057185 169,94.0211647167006 170,94.0245139721111 171,94.0286165627113 172,94.0330163285343 173,94.0361149177108 174,94.0373312659487 175,94.0354516127403 176,94.031329834284 177,94.0255973348312 178,94.0178004457168 179,94.0091303933969 180,93.9991198269864 181,93.9882062213288 182,93.9789682041196 183,93.9779750302042 184,93.9775513186628 185,93.9785332363415 186,93.9820581912692 187,93.9870060678017 188,93.9924702727457 189,93.9967682496046 190,94.0007103896881 191,94.0037759221775 192,94.0065754048686 193,94.0106714957836 194,94.0138310411894 195,94.0169898994223 196,94.0201935740938 197,94.0237263423456 198,94.0264375120796 199,94.0257324679802 200,94.0276793851682 201,94.0290418135622 202,94.0299621464008 203,94.0323678552819 204,94.0389040852475 205,94.0488597888286 206,94.0608720578609 207,94.0740908169649 208,94.0863858525641 209,94.0959734013406 210,94.1013544478941 211,94.1028570856731 212,94.1018503258178 213,94.1011336168158 214,94.1004581173244 215,94.1010689447611 216,94.1014205170345 217,94.1024434921812 218,94.102924320646 219,94.103256245653 220,94.1045223134183 221,94.1023194082898 222,94.0964340510162 223,94.0894404983408 224,94.0819842189515 225,94.0737945827349 226,94.0651977669586 227,94.05430513713 228,94.0446581857157 229,94.0359981683681 230,94.02784824428 231,94.0203619429975 232,94.0137067335469 233,94.0145148012217 234,94.0167134727751 235,94.0199391566605 236,94.0272831200517 237,94.0334969869652 238,94.0369836138966 239,94.0394416846603 240,94.0398395341267 241,94.038210467664 242,94.034537241798 243,94.0285897971592 244,94.0217077146648 245,94.0156644693613 246,94.0107673766349 247,94.0097874912493 248,94.0168754411306 249,94.0287072377862 250,94.0434592931866 251,94.059093864849 252,94.0752799883986 253,94.0892903960367 254,94.0997620409095 255,94.1048653245094 256,94.104187495946 257,94.0978265085517 258,94.0887937589386 259,94.079750251959 260,94.0719816755761 261,94.0666129318776 262,94.0682130512476 263,94.0713667954106 264,94.0758780496807 265,94.0807248483584 266,94.0849432019629 267,94.08835479312 268,94.0909764805129 269,94.0929174350802 270,94.094103136069 271,94.0930836051082 272,94.089170619749 273,94.0829917577606 274,94.075467187364 275,94.0678890410685 276,94.0627085083455 277,94.0588821247119 278,94.056906578097 279,94.0569178626567 280,94.0574816237528 281,94.0561502266665 282,94.0531997097594 283,94.0497806120039 284,94.0467539060056 285,94.0440134643549 286,94.040985580901 287,94.0403456775245 288,94.0389280156626 289,94.0369438262186 290,94.0343943612379 291,94.0302307739422 292,94.0241917467323 293,94.0181493442189 294,94.0125714581724 295,94.0090149827827 296,94.0058670238772 297,94.0021675163508 298,93.9969964727872 299,93.9899368620566 300,93.9877076792571 301,93.9897297922611 302,93.9905105061089 303,93.9894981108624 304,93.9876774627577 305,93.9877979415762 306,93.9923340839641 307,93.9985844314614 308,94.0056077829943 309,94.0127809417383 310,94.0200119144563 311,94.0271663544883 312,94.0378370601157 313,94.0487518334248 314,94.0574613584079 315,94.0628745881297 316,94.0647297464364 317,94.062131611587 318,94.0547204907381 319,94.0430631630093 320,94.0284291105583 321,94.0126859942318 322,93.9976212565258 323,93.9876483853276 324,93.9846414661043 325,93.9881864430881 326,93.9920046291544 327,93.9960011370646 328,93.9997645057412 329,94.0014775222717 330,94.0009673406582 331,93.9982870394663 332,93.9938885958264 333,93.9879720690298 334,93.9813309535496 335,93.9740871492241 336,93.9674919518648 337,93.9599903922071 338,93.952155992111 339,93.95166227029 340,93.9518215216146 341,93.9527085302112 342,93.9530961213938 343,93.9516774977102 344,93.9520573160441 345,93.9544310985416 346,93.9564870799535 347,93.9580131779031 348,93.9593086860204 349,93.9605044296143 350,93.9621774947296 351,93.9639753980604 352,93.9650668196713 353,93.9635744967645 354,93.9587778996559 355,93.9514156973807 356,93.9426405517212 357,93.9330935984194 358,93.9324066449405 359,93.9339110003589 360,93.9374965999125 361,93.9421787217959 362,93.9468994731564 363,93.950732701613 364,93.9526467086767 365,93.9523752925274 366,93.9493938980249 367,93.9449236593662 368,93.9406522579892 369,93.9378969749171 370,93.9375624608274 371,93.9404100905312 372,93.9452502118615 373,93.951012190079 374,93.9553262210096 375,93.9638212360243 376,93.9766511311481 377,93.9857459709101 378,93.993295818247 379,93.999723376796 380,94.0036275379546 381,94.0053180839759 382,94.003114657706 383,93.9974239752501 384,93.991032041968 385,93.983993534569 386,93.9792186832507 387,93.9809024673532 388,93.9870752198196 389,93.997214706524 390,94.0074983487812 391,94.017824189316 392,94.0255231381658 393,94.0283233767802 394,94.0276688646243 395,94.0258502198665 396,94.0233744745398 397,94.0214953461135 398,94.0198202064025 399,94.018695956312 400,94.0197923511511 401,94.0223467558869 402,94.0269392205366 403,94.0343792802273 404,94.0494482982635 405,94.0634682859131 406,94.0747725778193 407,94.0823952295251 408,94.0855619489502 409,94.0847531486512 410,94.0798588009477 411,94.0714983547246 412,94.0616008983494 413,94.0525641675244 414,94.0455713753037 415,94.0396993181979 416,94.0354414729929 417,94.0308870958571 418,94.0247521724928 419,94.0188249007442 420,94.0135415387842 421,94.0133150489708 422,94.0156193160512 423,94.0184153715827 424,94.0224669413664 425,94.0267032653609 426,94.0313875091582 427,94.034357095431 428,94.0345485510768 429,94.0317658641152 430,94.0289937503996 431,94.0271457190372 432,94.0261099075945 433,94.0296786963133 434,94.0345371776078 435,94.0406505603777 436,94.0470129247158 437,94.0540117178417 438,94.0622910434248 439,94.0691254160844 440,94.0717875051786 441,94.0691582124698 442,94.0602850247183 443,94.0465833121742 444,94.0308651011689 445,94.0147795936717 446,94.0003894498384 447,93.9888489610533 448,93.9814002081145 449,93.9772930356126 450,93.9839507160132 451,93.9909317759297 452,93.9946768683295 453,93.9958217480244 454,93.9964521150145 455,93.9978910764759 456,93.9998216383837 457,94.0022267376271 458,94.0046490616713 459,94.0061378083174 460,94.0057565274694 461,94.0051560796109 462,94.0059435504996 463,94.0064347501928 464,94.007123809913 465,94.0088260859092 466,94.0117247566837 467,94.0139591795424 468,94.0153260647426 469,94.0158893997853 470,94.0235151203973 471,94.0382614203984 472,94.0502924652317 473,94.0591709249994 474,94.0650800911592 475,94.0690093264937 476,94.0707763118331 477,94.0713807769581 478,94.0715338286324 479,94.0729557517729 480,94.0758282951775 481,94.0787261520903 482,94.0821160172391 483,94.0855412344897 484,94.089564674856 485,94.0959222629479 486,94.1037243544084 487,94.1123208554559 488,94.1185048994826 489,94.1213067337101 490,94.1227013176266 491,94.1264875981311 492,94.1251028934575 493,94.1203084284229 494,94.1134851852378 495,94.1064267530281 496,94.0996759913336 497,94.0926218648514 498,94.0857991145349 499,94.0778638423547 500,94.0690126069974 501,94.0593171108247 502,94.0492870020584 503,94.0400475627672 504,94.0321099215187 505,94.0259035962677 506,94.0212704168578 507,94.0174593055022 508,94.0175119626283 509,94.0235779604034 510,94.0259507300821 511,94.0242761656624 512,94.0170989870854 513,94.0067108423967 514,93.9954800032642 515,93.9854557312171 516,93.9760236819123 517,93.9682087412393 518,93.9623401823061 519,93.9586276044158 520,93.9562879553021 521,93.9543349423729 522,93.9589200094414 523,93.9657411724149 524,93.9727788724168 525,93.9800306460944 526,93.989170080041 527,93.9985299706566 528,94.0084084316876 529,94.0204402819545 530,94.0357678508795 531,94.0537419552805 532,94.0716134830488 533,94.0882177674635 534,94.1007485022703 535,94.1063203256505 536,94.1042004171085 537,94.0941272453404 538,94.0780089300977 539,94.0583205525099 540,94.046349405076 541,94.0376724065004 542,94.0324233189793 543,94.0288683382301 544,94.0275660439225 545,94.0273518682793 546,94.0284049378412 547,94.0301256453701 548,94.0315383001523 549,94.0322782522567 550,94.0325361251797 551,94.0333267991304 552,94.0344430132359 553,94.0359395342845 554,94.0371014086213 555,94.0370472914789 556,94.0347465173388 557,94.031333892784 558,94.0256948400106 559,94.0175464155172 560,94.0144866858808 561,94.0122538518532 562,94.0092095992611 563,94.0061614825151 564,94.0029629914683 565,93.9989454619611 566,93.9941465199655 567,93.9927132373483 568,93.9953130115112 569,93.9982707988082 570,94.000842258718 571,94.0035071835435 572,94.0063581295932 573,94.0090342728511 574,94.0103620244969 575,94.0098296093278 576,94.0155819446498 577,94.0199727178644 578,94.0237091315481 579,94.0269144253752 580,94.0302812292694 581,94.0325966247048 582,94.0337964614929 583,94.0342889938517 584,94.0351634979111 585,94.0345188368854 586,94.0329069142732 587,94.0293345453822 588,94.0253145565468 589,94.0208470381243 590,94.0170864728654 591,94.0141916249139 592,94.0110703748209 593,94.0091675107549 594,94.0074216525941 595,94.0051764726656 596,94.0018141401268 597,93.9981964361885 598,93.9944293932371 599,93.9914903007047 600,93.9947535071073 601,94.0009000685703 602,94.0076795335836 603,94.0131066244841 604,94.0161046718912 605,94.0169646945324 606,94.0149613001343 607,94.0107293690237 608,94.005774854686 609,93.9997334310999 610,93.9933478636364 611,93.9868991158343 612,93.9816493816305 613,93.9778991030945 614,93.9737129994841 615,93.9692943309444 616,93.9642971911254 617,93.9582215418408 618,93.9513470854454 619,93.9430126516019 620,93.941610599516 621,93.9452254914154 622,93.9488010164385 623,93.9526472651549 624,93.9563622374761 625,93.9594526854486 626,93.9621296494097 627,93.9641976867464 628,93.9659888351796 629,93.9680206163404 630,93.9704089917525 631,93.9745723841664 632,93.9811965758365 633,93.9962094179994 634,94.0104014614071 635,94.0230482782861 636,94.0333101619592 637,94.0443580741239 638,94.0540844349093 639,94.0618460563823 640,94.0656565514042 641,94.0661815247445 642,94.06516560812 643,94.0634597654493 644,94.0594121524676 645,94.0537152875528 646,94.0456882048744 647,94.0366776462829 648,94.0286938061552 649,94.0199038819861 650,94.0109253225694 651,94.000492876491 652,93.990821169694 653,93.9867285233875 654,93.9939613938083 655,94.0012373771571 656,94.0085055074899 657,94.0151224999647 658,94.0194726452276 659,94.0203381122312 660,94.0182342084498 661,94.0143895522433 662,94.010141659718 663,94.0070436258832 664,94.0053361664251 665,94.0054886708424 666,94.0108495949039 667,94.0197057585114 668,94.0280305942367 669,94.0342702517502 670,94.0373312659487 671,94.0364338073857 672,94.0323658242959 673,94.0265386517764 674,94.0193783957141 675,94.011818986276 676,94.0053374696791 677,94.0001649115017 678,93.9960421546786 679,93.9921696974746 680,93.988712045491 681,93.9852120588998 682,93.9824399692009 683,93.9866518308359 684,93.993029853053 685,94.0007956037549 686,94.008410093987 687,94.0150737948318 688,94.019755825222 689,94.0220758875188 690,94.0233061852614 691,94.0246214577388 692,94.0253490824676 693,94.0259767667979 694,94.0264375120796 695,94.0261478316773 696,94.0255816897274 697,94.0245447631944 698,94.0224130637862 699,94.0217754847509 700,94.0285968936675 701,94.036843010812 702,94.0468974970403 703,94.0588148662693 704,94.072223585277 705,94.0840819807701 706,94.0932258548763 707,94.0995672923572 708,94.1028570856731 709,94.1018707379363 710,94.102924320646 711,94.1019357429823 712,94.0999383832311 713,94.0994857285699 714,94.1000574836625 715,94.1020006107401 716,94.1033109715159 717,94.1045223134183 718,94.1044671168345 719,94.1026483353074 720,94.0960356561092 721,94.085869131959 722,94.0735953297402 723,94.060590326731 724,94.0486035978715 725,94.0381734728246 726,94.0291600341069 727,94.0213475339876 728,94.0161554111237 729,94.0132564556789 730,94.0188744413197 731,94.0220920232804 732,94.022901863015 733,94.0229056861514 734,94.0259653644316 735,94.0295588515228 736,94.0330310056283 737,94.0354294482623 738,94.0374373136806 739,94.0390358365969 740,94.0398395341267 741,94.0389064164905 742,94.0472979628487 743,94.0541904250244 744,94.0598319378605 745,94.0671573688671 746,94.0739297964224 747,94.0814081117739 748,94.0881538767272 749,94.0944443329228 750,94.1002441214561 751,94.104395148815 752,94.1048653245094 753,94.1016046594895 754,94.0964530862594 755,94.0895970450455 756,94.0827526497355 757,94.0772941851211 758,94.0738523640984 759,94.0713270787547 760,94.0695545763786 761,94.0762240046182 762,94.0830073907211 763,94.0881986039497 764,94.0914402103918 765,94.0926863903115 766,94.0932155783943 767,94.094103136069 768,94.0938746456231 769,94.0917465967299 770,94.0878272975731 771,94.0817099333868 772,94.0748651366786 773,94.0684827040856 774,94.0618671716298 775,94.0574816237528 776,94.0560830356971 777,94.0538280558048 778,94.051066786041 779,94.0471405780709 780,94.0438384208548 781,94.0415355934577 782,94.0404778083693 783,94.0403456775245 784,94.0389869212316 785,94.0360473799562 786,94.032476581907 787,94.0281277158956 788,94.0240070411571 789,94.0149543179765 790,94.0009618551542 791,93.9825001570286 792,93.9641187499046 793,93.9511302996344 794,93.9407374204594 795,93.9347551473295 796,93.9354754369895 797,93.9430514137253 798,93.9559365324265 799,93.9715237074023 800,93.9835644335628 801,93.9896087901754 802,93.9905105061089 803,93.9904286418395 804,93.9979300839786 805,94.0044391015107 806,94.0116044420091 807,94.0226450045563 808,94.0343695065786 809,94.0447829570361 810,94.0534345473647 811,94.0602698096178 812,94.064479174687 813,94.0647297464364 814,94.0611803273269 815,94.0546645717049 816,94.0466187461333 817,94.0392916275384 818,94.0337954521613 819,94.0278344003252 820,94.0212963048639 821,94.0148455820755 822,94.0104197894307 823,94.0066873062779 824,94.0022880823454 825,93.9996793695517 826,94.0014775222717 827,93.9999377741024 828,93.9952876242824 829,93.9880251777529 830,93.9797395829378 831,93.9704923895849 832,93.9620570686406 833,93.9558226382929 834,93.9519875361891 835,93.9509162760936 836,93.9515914158397 837,93.9523039518119 838,93.9530961213938 839,93.9515556037795 840,93.9487727319982 841,93.9460413521768 842,93.9445117435598 843,93.9451963271918 844,93.9485373008636 845,93.9522330516844 846,93.9571002007661 847,93.9627105288862 848,93.9650668196713 849,93.9629274344983 850,93.9571824965506 851,93.9498884318542 852,93.9420904312611 853,93.9352613445401 854,93.9314598980312 855,93.9305529052787 856,93.9297411590267 857,93.9311379355895 858,93.9398920026484 859,93.9479824086069 860,93.952425760531 861,93.9526467086767 862,93.9500496213519 863,93.9535389281728 864,93.9566408663006 865,93.9571706731499 866,93.951816064437 867,93.9404133884301 868,93.9283272383255 869,93.9173768153965 870,93.9099785926174 871,93.9069986886158 872,93.910305192593 873,93.9196635980006 874,93.934761116596 875,93.951669301878 876,93.9685668479057 877,93.9802839271664 878,93.9870723548633 879,93.9927344727309 880,93.9976239223274 881,94.0019932475918 882,94.0048028385612 883,94.0053180839759 884,94.0032249243896 885,93.9988021198741 886,93.992858442205 887,93.9961497079935 888,94.0017278378728 889,94.0078805070915 890,94.0138518234219 891,94.0204212230508 892,94.0257472255087 893,94.0283233767802 894,94.0372985901707 895,94.0428957000997 896,94.0457895442318 897,94.046121908657 898,94.0469001638711 899,94.048324729606 900,94.0512211331632 901,94.0555394010215 902,94.0606553912756 903,94.066256523513 904,94.0717433508912 905,94.0760990178329 906,94.0793104497126 907,94.0821579572562 908,94.0842924054887 909,94.0855619489502 910,94.0851690621515 911,94.0819623808578 912,94.0759791104883 913,94.0673681792827 914,94.0573582824373 915,94.0465024850865 916,94.0364339883795 917,94.0266913793367 918,94.0173815767574 919,94.0159274955897 920,94.0212092564847 921,94.0258826533832 922,94.0286190856811 923,94.0312110947409 924,94.0330663745887 925,94.0342787061242 926,94.0345485510768 927,94.0345081782367 928,94.0335161458937 929,94.031871394116 930,94.0289765901713 931,94.0336021555975 932,94.0398460896037 933,94.0466779867508 934,94.0532584683544 935,94.0591504963013 936,94.06471056876 937,94.0691913686259 938,94.0717627702482 939,94.0717875051786 940,94.0688771063331 941,94.0620460665598 942,94.0516101659118 943,94.0398209081583 944,94.0275174098466 945,94.0141966969062 946,94.0022368490095 947,93.9930902278389 948,93.9876445317744 949,93.9856142401082 950,93.9848967975688 951,93.9844148721277 952,93.9905447300631 953,93.9937265900518 954,93.9952235178331 955,93.9968184469657 956,93.9989461885988 957,94.001142587728 958,94.0031243839094 959,94.0049079409218 960,94.0064002527213 961,94.0123846130152 962,94.0155550605736 963,94.0158893997853 964,94.013833132827 965,94.0111780199573 966,94.0083351347154 967,94.0057350778259 968,94.0043924604034 969,94.0045518282745 970,94.0071411994441 971,94.0126672287961 972,94.0171259968013 973,94.0190285252387 974,94.0185671338724 975,94.0171423124944 976,94.0158528994305 977,94.0165516253255 978,94.0203874329931 979,94.0280747496372 980,94.0408917130024 981,94.0662306277669 982,94.0894249660696 983,94.1074059615867 984,94.1179329696136 985,94.1213067337101 986,94.1199564473763 987,94.1165802228167 988,94.1133911652443 989,94.1112315245153 990,94.1122966636291 991,94.1151453993291 992,94.1195700455216 993,94.1241309424248 994,94.1264875981311 995,94.1252605426627 996,94.1195169241579 997,94.1099089313168 998,94.0970767589884 999,94.0821281832808 1000,94.0660860097053"/><polyline fill="none" stroke="green" stroke-width="2" points=" 1,94.0472406284527 2,94.0318992669748 3,94.0185504682363 4,94.0089045167347 5,94.0026209047219 6,94.0026526204464 7,94.0009691845456 8,93.9996964730665 9,94.0009332834618 10,94.0040622865805 11,94.0084622751151 12,94.0142988784807 13,94.0201671499986 14,94.0219459792169 15,94.0217703513345 16,94.018584551479 17,94.0118387944329 18,94.0012794451752 19,93.9876956648239 20,93.974178437097 21,93.9797828374115 22,93.9893848787988 23,94.0021264779548 24,94.0170090338652 25,94.0327253128815 26,94.0481886273399 27,94.0625343763383 28,94.0744337416815 29,94.0825337508147 30,94.0878873283641 31,94.0912212584296 32,94.0938734212252 33,94.0969937830111 34,94.1000927661204 35,94.1020883646655 36,94.1023152775772 37,94.1001367673412 38,94.0964141542101 39,94.0917524349152 40,94.0857931331917 41,94.0796158849939 42,94.0734868768422 43,94.0684082607133 44,94.0654019627675 45,94.0635487496577 46,94.0637985014322 47,94.06509204589 48,94.0665582514358 49,94.0651003730499 50,94.0592763546127 51,94.0471412086228 52,94.0319947483436 53,94.0236125711793 54,94.0119348054254 55,94.0001605985446 56,93.9906180719966 57,93.9862860363444 58,93.9865915562161 59,93.9908745083207 60,93.9968410769687 61,94.0031435890787 62,94.0084152077428 63,94.0108729091315 64,94.0083067913205 65,94.0024870363036 66,93.9951454896575 67,93.9886595702716 68,93.9863338411073 69,93.9862207291787 70,93.9901611448835 71,93.9970346625852 72,94.0029918101364 73,94.0063569759442 74,94.005248887542 75,94.00110178552 76,93.996084273047 77,93.9931794552103 78,93.9928362853303 79,93.9969298609199 80,94.0024122100556 81,94.0097633262422 82,94.0174039140451 83,94.0237065884759 84,94.0272529975973 85,94.029435925955 86,94.0302726746042 87,94.0311586084377 88,94.0303061778135 89,94.0283595026598 90,94.024944543851 91,94.0201648044462 92,94.0145270670971 93,94.0093402887608 94,94.0056653446638 95,94.0043369677697 96,94.0046692269001 97,94.0051627598732 98,94.0041325601522 99,93.9999270411043 100,93.9944161276704 101,93.9879964957455 102,93.9832931027916 103,93.9838813415581 104,93.9862872715974 105,93.9910450910352 106,93.9983977564945 107,94.0064446836793 108,94.0120015306312 109,94.0129599436468 110,94.0080770923218 111,93.9970383559828 112,93.9819584870521 113,93.9641719240062 114,93.9453670741982 115,93.9288789338288 116,93.9200898887167 117,93.9167031048849 118,93.9169698433632 119,93.9190158708842 120,93.9210550469982 121,93.9242276521548 122,93.9275699964583 123,93.9316094980436 124,93.9354195273875 125,93.9383733493112 126,93.9417329708567 127,93.9453767915445 128,93.9492777904511 129,93.9534758687995 130,93.9628906295071 131,93.9723996821327 132,93.9804277111297 133,93.9875903377092 134,93.9943025729597 135,94.0002373738337 136,94.0041894805213 137,94.0076009842766 138,94.0118484709527 139,94.0176504508823 140,94.0257237190759 141,94.0351818661435 142,94.0453523438729 143,94.0536326800294 144,94.0593419109047 145,94.0621767738531 146,94.0612939378035 147,94.0576878344686 148,94.0510669378912 149,94.0430745676863 150,94.0340292073361 151,94.0261614894897 152,94.0183003712237 153,94.0104504785935 154,93.9999803462122 155,93.9887427048354 156,93.9790697659217 157,93.9742263026025 158,93.9780453289481 159,93.9835483050676 160,93.9913601346282 161,93.9999059847601 162,94.0076765069308 163,94.0134946369662 164,94.0163335394472 165,94.0133472554998 166,94.0090004718833 167,94.011269809645 168,94.0143109571643 169,94.0171596486215 170,94.0205089240355 171,94.0246115146358 172,94.0290113399907 173,94.0321100282268 174,94.0333265150511 175,94.0314468618425 176,94.0273252614978 177,94.0215929796802 178,94.0137963477224 179,94.0051262954021 180,93.9951160256673 181,93.9842027562014 182,93.9749631360405 183,93.973969962125 184,93.9735462505837 185,93.9745281882658 186,93.9780531431934 187,93.9830010197259 188,93.9884652842015 189,93.9927633601194 190,93.9967055002028 191,93.9997711712775 192,94.0025706539685 193,94.0066669229938 194,94.0098266860331 195,94.0129855442654 196,94.0161892189365 197,94.0197219871879 198,94.0224327611785 199,94.021727717079 200,94.0236748099834 201,94.0250372383777 202,94.0259573935851 203,94.02836296436 204,94.0348991943255 205,94.0448547993266 206,94.0568670093064 207,94.0700857488858 208,94.082380784485 209,94.091968353265 210,94.0973494593498 211,94.0988521961874 212,94.0978455749169 213,94.0971288659148 214,94.0964535445329 215,94.0970645896023 216,94.0974164190294 217,94.0984393941759 218,94.0989205193126 219,94.0992512571086 220,94.1005174239323 221,94.0983145188038 222,94.0924291615301 223,94.0854357474392 224,94.0779796461593 225,94.0697902275751 226,94.0611936689521 227,94.0503013357951 228,94.0406543843805 229,94.03199470322 230,94.0238451548311 231,94.0163592687562 232,94.009701745002 233,94.010509911735 234,94.0127085832884 235,94.015934108106 236,94.0232780714972 237,94.0294919384107 238,94.0329785653421 239,94.0354366361058 240,94.0358344660475 241,94.0342054195882 242,94.0305321937222 243,94.0245848086144 244,94.01770272612 245,94.0116595798746 246,94.0067626257326 247,94.0057824231701 248,94.0128703730514 249,94.0247021892317 250,94.0394542251074 251,94.0550887967699 252,94.0712749403229 253,94.0852854074924 254,94.0957571514238 255,94.1008604350239 256,94.1001827450455 257,94.0938219357609 258,94.0847894037808 259,94.0757458968011 260,94.067977577572 261,94.0626078833231 262,94.0642079831685 263,94.0673617273315 264,94.0718730016051 265,94.0767198598142 266,94.0809382134188 267,94.0843499036348 268,94.0869715910277 269,94.0889125455952 270,94.090098246584 271,94.0890787156233 272,94.0851658688494 273,94.078987006861 274,94.0714626145747 275,94.0638846859127 276,94.0587041531899 277,94.0548780267113 278,94.052902480097 279,94.0529135075024 280,94.0534770509647 281,94.052145871513 282,94.0491953546063 283,94.0457762568511 284,94.0427495508532 285,94.0400093663589 286,94.0369812257494 287,94.0363409266269 288,94.0349234428768 289,94.032939253433 290,94.030390006088 291,94.0262264187926 292,94.0201876487398 293,94.0141452462269 294,94.0085673601809 295,94.005010884792 296,94.0018632225637 297,93.998164051231 298,93.992993383374 299,93.9859341878592 300,93.9837026307032 301,93.9857247437073 302,93.9865054380298 303,93.985493062787 304,93.9836724146822 305,93.9837931887674 306,93.9883293311552 307,93.9945795405433 308,94.0016027934943 309,94.0087759522383 310,94.0160068659023 311,94.0231612864091 312,94.0338319920366 313,94.0447467853496 314,94.0534563698656 315,94.0588696986489 316,94.0607248569558 317,94.0581268606953 318,94.0507159179611 319,94.0390588078709 320,94.0244247554194 321,94.0086818962527 322,93.9936174552255 323,93.9836449202234 324,93.9806363980252 325,93.984181375009 326,93.9879995810792 327,93.9919961485224 328,93.9957595171991 329,93.9974726327914 330,93.9969625897673 331,93.9942824666912 332,93.9898840230514 333,93.983967713895 334,93.9773268547294 335,93.9700833469651 336,93.963488149607 337,93.955986926028 338,93.9481525259338 339,93.9476572807919 340,93.9478166307007 341,93.9487036392974 342,93.9490913685925 343,93.9476729225481 344,93.9480523275027 345,93.9504260504665 346,93.9524820318785 347,93.9540081098239 348,93.9553036374671 349,93.9564994401165 350,93.9581725052319 351,93.9599705071474 352,93.9610620668716 353,93.9595699216048 354,93.9547735416614 355,93.9474113393867 356,93.9386364504152 357,93.9290897933217 358,93.9284015968655 359,93.9299059322798 360,93.9334915318334 361,93.9381736732428 362,93.9428944836594 363,93.9467278107017 364,93.9486418177656 365,93.9483705397309 366,93.9453893228702 367,93.9409193013789 368,93.9366479000028 369,93.9338928736222 370,93.9335583595346 371,93.9364062854531 372,93.9412464067878 373,93.9470087207414 374,93.9513231269248 375,93.9598166632727 376,93.972646558397 377,93.9817412200349 378,93.989291067372 379,93.9957184873247 380,93.9996225494166 381,94.0013130954379 382,93.9991096096319 383,93.993418907171 384,93.9870269738889 385,93.9799884860162 386,93.9752136346979 387,93.976897716476 388,93.9830704689424 389,93.9932098170516 390,94.0034933602428 391,94.0138192007778 392,94.0215180900916 393,94.0243183087011 394,94.0236638160715 395,94.0218451713137 396,94.0193694850446 397,94.0174904552063 398,94.0158154536131 399,94.014691203523 400,94.0157877760087 401,94.0183423979185 402,94.0229351192679 403,94.0303742916905 404,94.045443309727 405,94.0594632973769 406,94.0707675892832 407,94.0783902409891 408,94.0815569008766 409,94.0807481005776 410,94.0758537328686 411,94.0674933061722 412,94.0575959088554 413,94.0485591780303 414,94.0415664843991 415,94.0356945654129 416,94.0314367202081 417,94.0268825207209 418,94.0207478145321 419,94.0148205427843 420,94.0095371808254 421,94.0093099808917 422,94.0116142674989 423,94.0144103820894 424,94.0184619518732 425,94.0226982758678 426,94.027382460606 427,94.0303520468788 428,94.0305435615839 429,94.0277608746223 430,94.0249887018474 431,94.0231407295443 432,94.0221049181017 433,94.0256737077778 434,94.0305321890723 435,94.0366455123042 436,94.0430078766424 437,94.0500066497626 438,94.0582859753457 439,94.0651203675323 440,94.0677824566265 441,94.0651532229775 442,94.0562801338176 443,94.0425785593956 444,94.0268603483898 445,94.0107750185433 446,93.9963850918876 447,93.9848448598054 448,93.977396106868 449,93.9732892305939 450,93.9799458265478 451,93.9869268864645 452,93.9906718797942 453,93.9918167594891 454,93.9924471264791 455,93.9938860879405 456,93.9958166498483 457,93.9982217490917 458,94.0006440731358 459,94.0021327602439 460,94.0017514593903 461,94.0011510310589 462,94.0019385019476 463,94.0024297607004 464,94.0031189190123 465,94.0048211950089 466,94.0077200039067 467,94.009954604419 468,94.0113217068014 469,94.0118850418461 470,94.0195133954704 471,94.0342592012041 472,94.0462897912728 473,94.0551678357835 474,94.0610766261987 475,94.0650055253056 476,94.0667722139377 477,94.0673764218789 478,94.0675294735515 479,94.068951179035 480,94.0718235443106 481,94.0747212626236 482,94.0781110287033 483,94.0815361864162 484,94.0855596067768 485,94.0919172143955 486,94.0997193058561 487,94.1083158659627 488,94.1145000085807 489,94.1173019809306 490,94.118696566764 491,94.122482708667 492,94.1210979049227 493,94.116303439888 494,94.1094801371645 495,94.102421684949 496,94.0956709427812 497,94.0886168753579 498,94.0817941250414 499,94.0738589514517 500,94.065007854215 501,94.0553125356919 502,94.0452826441022 503,94.0360432048114 504,94.0281058202649 505,94.0218997912389 506,94.0172666118322 507,94.0134558362235 508,94.0135073898938 509,94.0195733876684 510,94.0219459792169 511,94.0202714147965 512,94.0130940976187 513,94.0027058538605 514,93.9914750147277 515,93.9814506831432 516,93.9720186138332 517,93.964203692687 518,93.9583351337538 519,93.9546226149219 520,93.9522830643979 521,93.9503301895883 522,93.9549156543488 523,93.9617365996692 524,93.968774121545 525,93.9760257566249 526,93.9851651905717 527,93.9945249821196 528,94.0044033836137 529,94.0164352338807 530,94.0317627828003 531,94.0497369067282 532,94.0676084945134 533,94.0842127789284 534,94.0967434541971 535,94.1023152775772 536,94.1001953490293 537,94.0901221967882 538,94.0740038815454 539,94.0543155630166 540,94.042345940087 541,94.0336686052862 542,94.0284192210624 543,94.0248639831345 544,94.0235616888251 545,94.0233472955296 546,94.0244001869666 547,94.026120755899 548,94.0275333116144 549,94.0282732041826 550,94.0285310571005 551,94.0293217310512 552,94.0304379646831 553,94.0319345447892 554,94.0330965177144 555,94.0330425386901 556,94.0307419421965 557,94.0273293176423 558,94.021690482042 559,94.013542314246 560,94.0104817964105 561,94.0082488633155 562,94.005204551187 563,94.002156434441 564,93.9989579233892 565,93.9949404134085 566,93.9901415304706 567,93.9887084864728 568,93.9913082606354 569,93.9942659093363 570,93.9968372701797 571,93.9995021950052 572,94.002353081519 573,94.0050292047719 574,94.0063569759442 575,94.0058246198326 576,94.0115778467198 577,94.0159683627604 578,94.019704776443 579,94.0229098526207 580,94.0262766565144 581,94.0285918738268 582,94.0297917106146 583,94.030284242973 584,94.0311586084377 585,94.0305138483464 586,94.0289019257341 587,94.0253294973077 588,94.0213095084723 589,94.0168419700451 590,94.0130814047863 591,94.0101865763608 592,94.0070653262678 593,94.0051627598732 594,94.0034167631189 595,94.0011715831901 596,93.9978091515867 597,93.9941913881137 598,93.9904243451624 599,93.9874852326255 600,93.9907497058394 601,93.9968959706147 602,94.0036751784611 603,94.0091020517177 604,94.0121000991244 605,94.0129599436468 606,94.0109564106569 607,94.0067243804828 608,94.0017698066111 609,93.9957283630208 610,93.989342815083 611,93.9828940672809 612,93.9776443921324 613,93.9738942121806 614,93.9697082466826 615,93.9652897557818 616,93.9602928331268 617,93.9542171838428 618,93.9473429841342 619,93.9390088464976 620,93.9376062443887 621,93.9412213934515 622,93.9447969184732 623,93.9486431671886 624,93.9523578823452 625,93.955448330317 626,93.9581250766366 627,93.9601931139728 628,93.9619840842896 629,93.9640158654501 630,93.966404240862 631,93.9705674946864 632,93.9771939016716 633,93.992206328615 634,94.0063983720221 635,94.0190448131905 636,94.0293063606658 637,94.0403539761497 638,94.0500803369349 639,94.0578417012462 640,94.0616519786282 641,94.0621767738531 642,94.0611608572284 643,94.0594548759686 644,94.0554071639254 645,94.0497102394776 646,94.0416831567992 647,94.0326725782038 648,94.0246887576013 649,94.0158988924862 650,94.0069203330694 651,93.996487985573 652,93.9868162787761 653,93.9827254339764 654,93.9899579286904 655,93.9972335758456 656,94.0045017061777 657,94.0111184019754 658,94.0154682900802 659,94.0163335394472 660,94.0142294575531 661,94.0103846627596 662,94.0061366711744 663,94.0030386373396 664,94.0013311183495 665,94.0014836227668 666,94.0068452397531 667,94.0157014033606 668,94.0240260214508 669,94.0302656789643 670,94.0333265150511 671,94.0324289179016 672,94.0283608357522 673,94.0225336632326 674,94.0153733476385 675,94.0078139181969 676,94.0013324016 677,93.9961598629476 678,93.9920371061244 679,93.9881647079734 680,93.9847070559899 681,93.9812070693987 682,93.9784350782804 683,93.9826477328361 684,93.9890263879153 685,93.9967921386165 686,94.0044070045487 687,94.0110707053925 688,94.0157523600812 689,94.0180720861889 690,94.0193020872583 691,94.0206173597351 692,94.0213447273095 693,94.0219721940066 694,94.0224327611785 695,94.0221429421913 696,94.0215768002413 697,94.0205397746498 698,94.0184080157104 699,94.0177723953039 700,94.0245934285208 701,94.0328392094779 702,94.0428933990345 703,94.0548107682637 704,94.0682192301179 705,94.0800774079786 706,94.0892211039753 707,94.0955625414562 708,94.0988521961874 709,94.097865749392 710,94.0989205193126 711,94.0979316449767 712,94.0959340280718 713,94.0954813734106 714,94.0960529108705 715,94.0979958598387 716,94.0993062206145 717,94.1005174239323 718,94.1004621282901 719,94.0986432872317 720,94.0920305880301 721,94.0818640638798 722,94.0695902811856 723,94.0565853372287 724,94.0445987069487 725,94.034168581902 726,94.02515528129 727,94.0173427811708 728,94.0121505202013 729,94.0092515647565 730,94.014870086159 731,94.0180876681198 732,94.0188972902221 733,94.0189009352493 734,94.0219604749451 735,94.0255539620363 736,94.0290260170835 737,94.0314244597176 738,94.0334322656048 739,94.0350307685177 740,94.0358344660475 741,94.034901367936 742,94.0432957433258 743,94.0501877507889 744,94.0558288484166 745,94.0631539037232 746,94.0699259950906 747,94.0774043104426 748,94.0841497787235 749,94.0904399777651 750,94.0962395486653 751,94.1003903979144 752,94.1008604350239 753,94.097599770004 754,94.0924480977152 755,94.0855919969699 756,94.0787475816563 757,94.0732891365666 758,94.0698473745964 759,94.0673220892527 760,94.0655496854565 761,94.0722196494618 762,94.079003035565 763,94.0841940311601 764,94.0874356376024 765,94.0886816394118 766,94.0892108274947 767,94.090098246584 768,94.0898696570791 769,94.087741608186 770,94.0838222494976 771,94.0777048653077 772,94.0708600881241 773,94.0644776555312 774,94.0578621821282 775,94.0534770509647 776,94.0520782847982 777,94.0498233049061 778,94.0470618965564 779,94.0431356885865 780,94.0398335313705 781,94.0375308425596 782,94.0364730574714 783,94.0363409266269 784,94.0349820317477 785,94.0320424904724 786,94.0284716924232 787,94.024122826412 788,94.0200020526136 789,94.0109493294331 790,93.9969568070787 791,93.9784950889495 792,93.9601141771229 793,93.9471255487398 794,93.9367326695653 795,93.9307502578475 796,93.9314705475076 797,93.9390464251825 798,93.9519315438836 799,93.9675187188593 800,93.9795593854874 801,93.9856037220963 802,93.9865054380298 803,93.9864259676728 804,93.9939269945917 805,94.0004356364132 806,94.0076006407139 807,94.018641203262 808,94.0303654086025 809,94.0407786018983 810,94.0494299745875 811,94.0562652368409 812,94.0604744237952 813,94.0607248569558 814,94.0571753387849 815,94.0506595236299 816,94.0426136980582 817,94.0352865594594 818,94.0297904036076 819,94.023829410826 820,94.0172914139481 821,94.0108406911598 822,94.006415036626 823,94.0026827311105 824,93.9982837243399 825,93.9956746186605 826,93.9974726327914 827,93.9959328846222 828,93.9912826357404 829,93.984020189211 830,93.9757345348626 831,93.9664873215058 832,93.9580520005615 833,93.9518175897395 834,93.9479824879929 835,93.9469112080144 836,93.9475863477606 837,93.9482991990103 838,93.9490913685925 839,93.947550712866 840,93.9447678410849 841,93.942036362679 842,93.9405067540621 843,93.9411912786385 844,93.9445322523103 845,93.9482280031311 846,93.953095447966 847,93.9587059537262 848,93.9610620668716 849,93.9589225435856 850,93.9531776056383 851,93.9458834423569 852,93.9380853827079 853,93.931256276461 854,93.9274548299521 855,93.9265478572038 856,93.9257361704861 857,93.9271335776017 858,93.9358874274931 859,93.9439778334517 860,93.9484210077342 861,93.9486418177656 862,93.9460447304411 863,93.9495367031181 864,93.9526381869812 865,93.9531675790727 866,93.9478125951137 867,93.9364099191159 868,93.9243234332787 869,93.9133727141332 870,93.9059742346569 871,93.9029941134807 872,93.9063006174587 873,93.9156590228659 874,93.9307563638116 875,93.9476644109732 876,93.9645619570005 877,93.9762789376719 878,93.9830673653687 879,93.9887294241783 880,93.9936188542483 881,93.9979881795127 882,94.000797790487 883,94.0013130954379 884,93.9992200349183 885,93.9947973689994 886,93.9888536913301 887,93.9921451328518 888,93.9977230850844 889,94.0038756161848 890,94.0098469325152 891,94.0164162335557 892,94.021742176956 893,94.0243183087011 894,94.0332959109009 895,94.0388926060613 896,94.0417864502003 897,94.0421184393692 898,94.0428963588414 899,94.0443206283529 900,94.0472167752081 901,94.0515350430675 902,94.0566508161439 903,94.0622517707309 904,94.067738459988 905,94.0720940283393 906,94.075305460219 907,94.0781529087038 908,94.0802873374096 909,94.0815569008766 910,94.0811640736155 911,94.0779573923218 912,94.0719742210214 913,94.0633634284158 914,94.0533537097 915,94.0424981300066 916,94.0324296332994 917,94.0226872814396 918,94.0133777755662 919,94.0119231376367 920,94.0172048985327 921,94.021878078253 922,94.0246145105515 923,94.0272063419605 924,94.0290614836867 925,94.0302737166312 926,94.0305435615839 927,94.0305031296845 928,94.0295110778146 929,94.0278663460424 930,94.0249715420978 931,94.0295983505913 932,94.0358419883674 933,94.0426736288074 934,94.0492538932299 935,94.0551457435238 936,94.0607058159826 937,94.0651864777254 938,94.0677577807558 939,94.0677824566265 940,94.064872038254 941,94.0580410184866 942,94.0476051178385 943,94.035815919624 944,94.0235125203839 945,94.0101919460472 946,93.9982322762851 947,93.9890858727777 948,93.9836404339021 949,93.9816101422332 950,93.9808929964041 951,93.9804098235758 952,93.986539661984 953,93.9897215419782 954,93.9912184697595 955,93.9928133788866 956,93.9949411400468 957,93.9971375391761 958,93.9991193158303 959,94.0009028728427 960,94.0023961514854 961,94.0083805117808 962,94.0115509593413 963,94.0118850418461 964,94.0098285577066 965,94.0071734448385 966,94.0043303819425 967,94.0017301869284 968,94.0003875695062 969,94.0005468387838 970,94.0031361508926 971,94.0086621802445 972,94.0131209287221 973,94.0150234771656 974,94.0145620857993 975,94.0131373239605 976,94.0118480099683 977,94.012546735863 978,94.0163826821335 979,94.0240699987764 980,94.0368879080037 981,94.0622265265315 982,94.0854208648312 983,94.1034016036396 984,94.1139283944859 985,94.1173019809306 986,94.1159516945975 987,94.1125753319158 988,94.1093861757518 989,94.1072264759632 990,94.1082916150769 991,94.11114033125 992,94.1155649974484 993,94.1201259538902 994,94.122482708667 995,94.1212557918 996,94.115512173295 997,94.1059043585855 998,94.0930724039175 999,94.0781240853972 1000,94.0620819118219"/></svg>
