<svg width="800" height="700" xmlns="http://www.w3.org/2000/svg">

    <style> 
        .box {fill:#0000aa;fill-rule:evenodd;stroke:#FFFFFF;stroke-width:0.600001;stroke-linejoin:round;stroke-miterlimit:0;stroke-opacity:0.82735;paint-order:stroke fill markers;stop-color:#000000} 
        .text {font-size:16px;font-family:Arial;-inkscape-font-specification:'Arial, Normal';text-align:left;fill:#CECECE;fill-rule:evenodd;stroke:#0000FF;stroke-width:0.600001;stroke-linejoin:round;stroke-miterlimit:0;stroke-opacity:0.82735;paint-order:stroke fill markers;stop-color:#000000}
        .axis { stroke: green; stroke-width: 1; } 
        .point { fill: red; r: 1; } 
    </style>


  <line x1="15" y1="100" x2="15" y2="650" stroke="black" stroke-width="2" />  
  <polygon points="10,105 15,100 20,105" fill="black" />     <!-- Flecha eje Y -->
  <line x1="5" y1="630" x2="750" y2="630" stroke="black" stroke-width="2" />
  <polygon points="745,625 750,630 745,635" fill="black" /> <!-- Flecha eje X -->
  
  <text x="2" y="150" font-size="14" fill="black">Y</text>
  <text x="675" y="645" font-size="14" fill="black">X</text>



    <rect class="box" id="r1" width="650" height="60" x="10" y="10" ry="5.0" />

    <rect class="box" id="r2" width="80" height="20" x="15" y="30" ry="3" />
    <text xml:space="preserve" class="text" x="25" y="45" id="t1">DELPHI</text>
    
    <rect class="box" id="r3" width="100" height="20" x="100" y="15" ry="3" />
    <text xml:space="preserve" class="text" x="100" y="30" id="t2">114.204806</text>

    <rect class="box" id="r4" width="100" height="20" x="100" y="45" ry="3" />
    <text xml:space="preserve" class="text" x="100" y="60" id="text236">114.418146</text>

    <rect class="box" id="rect454-2" width="80" height="20" x="215" y="30" ry="3" />
    <text xml:space="preserve" class="text" x="225" y="45" id="text236">AUS</text>
    
    <rect class="box" id="rect454-2-5" width="100" height="20" x="300" y="15" ry="3" />
    <text xml:space="preserve" class="text" x="300" y="30" id="text236">114.235284</text>

    <rect class="box" id="rect454-2-5-5" width="100" height="20" x="300" y="45" ry="3" />
    <text xml:space="preserve" class="text" x="300" y="60" id="text236">114.448483</text>
    

    <rect class="box" id="rect454-2" width="80" height="20" x="415" y="30" ry="3" />
    <text xml:space="preserve" class="text" x="425" y="45" id="text236">DIF</text>
    
    <rect class="box" id="rect454-2-5" width="100" height="20" x="500" y="15" ry="3" />
    <text xml:space="preserve" class="text" x="500" y="30" id="text236">0.0305</text>

    <rect class="box" id="rect454-2-5-5" width="100" height="20" x="500" y="45" ry="3" />
    <text xml:space="preserve" class="text" x="500" y="60" id="text236">0.0303</text>


    

  <polyline points="20,331.95 20.8,338.18 21.6,349.67 22.4,351.35 23.2,343.63 24,337.89 24.8,334.46 25.61,330.18 26.41,322.79 27.21,314.08 28.01,304.37 28.81,295.1 29.61,290.21 30.41,287.76 31.21,288.98 32.01,291.9 32.81,296.96 33.61,302.41 34.41,308.01 35.22,311.74 36.02,315.71 36.82,318.13 37.62,319.38 38.42,323.38 39.22,311.59 40.02,297.91 40.82,283.72 41.62,273.48 42.42,281.67 43.22,311.35 44.02,361.57 44.82,419.38 45.63,473.09 46.43,514.93 47.23,541.36 48.03,547.93 48.83,537.5 49.63,512.53 50.43,482.97 51.23,465.35 52.03,459.14 52.83,462.61 53.63,467.25 54.43,471.35 55.24,477.51 56.04,486.11 56.84,482.06 57.64,452.84 58.44,424.05 59.24,398.59 60.04,379.73 60.84,367.02 61.64,359.76 62.44,356.52 63.24,356.5 64.04,359.9 64.84,362.35 65.65,361.44 66.45,358.68 67.25,360.49 68.05,357.42 68.85,362.86 69.65,372.33 70.45,383.78 71.25,395.62 72.05,405.62 72.85,412.66 73.65,415.49 74.45,412.37 75.26,405.83 76.06,396.56 76.86,386.77 77.66,378.5 78.46,374.78 79.26,379.04 80.06,393.38 80.86,411.27 81.66,414.99 82.46,421.69 83.26,429.06 84.06,435.22 84.86,442.37 85.67,451.94 86.47,462.03 87.27,472.66 88.07,483.67 88.87,494.34 89.67,503.57 90.47,510.03 91.27,512.23 92.07,514.95 92.87,517.95 93.67,515.31 94.47,496.37 95.28,482.18 96.08,472.66 96.88,466.89 97.68,463.68 98.48,461.34 99.28,458.48 100.08,457.64 100.88,462.6 101.68,471.29 102.48,482.47 103.28,491.83 104.08,487.95 104.88,479.34 105.69,469.85 106.49,457.29 107.29,442.25 108.09,428.76 108.89,416.01 109.69,405.59 110.49,402.71 111.29,403.13 112.09,405.48 112.89,410.71 113.69,403.52 114.49,384.29 115.3,370.39 116.1,361.05 116.9,355.56 117.7,352.52 118.5,354.64 119.3,361.42 120.1,368.69 120.9,380.39 121.7,396.54 122.5,411.07 123.3,419.77 124.1,429.59 124.9,439.06 125.71,448.65 126.51,455.5 127.31,461.48 128.11,468.09 128.91,475.58 129.71,487.45 130.51,504.25 131.31,518.65 132.11,513.35 132.91,496.04 133.71,482.86 134.51,471.73 135.32,456.39 136.12,436.24 136.92,416.5 137.72,397.94 138.52,384.73 139.32,380.04 140.12,381.92 140.92,387.34 141.72,396 142.52,410.38 143.32,424.37 144.12,432.32 144.92,435.56 145.73,439.52 146.53,443.48 147.33,448.01 148.13,454.48 148.93,459.51 149.73,464.06 150.53,466.82 151.33,469.23 152.13,465.6 152.93,444.49 153.73,428.01 154.53,419.43 155.34,412.52 156.14,406.9 156.94,403.62 157.74,404.93 158.54,407.16 159.34,407.54 160.14,405.03 160.94,397.36 161.74,379.74 162.54,357.79 163.34,335.8 164.14,314.68 164.94,294.58 165.75,275.74 166.55,266.6 167.35,270.94 168.15,282.61 168.95,297.8 169.75,312.63 170.55,323.53 171.35,332.01 172.15,338.02 172.95,342.96 173.75,344.98 174.55,350.16 175.36,355.43 176.16,359.6 176.96,361.59 177.76,359.51 178.56,348.65 179.36,325.87 180.16,295.92 180.96,263.79 181.76,235.63 182.56,220.23 183.36,217.32 184.16,230.82 184.96,262.54 185.77,286.46 186.57,304.94 187.37,326.07 188.17,346.25 188.97,365.38 189.77,377.86 190.57,378.02 191.37,368.68 192.17,347.52 192.97,319.4 193.77,289.1 194.57,256.4 195.38,225.31 196.18,202.53 196.98,181.38 197.78,157.64 198.58,132.53 199.38,111.54 200.18,100.05 200.98,100 201.78,115.81 202.58,146.72 203.38,184.06 204.18,218.64 204.98,246.33 205.79,260.98 206.59,264.08 207.39,265.03 208.19,268.99 208.99,275.46 209.79,284.57 210.59,291.88 211.39,296.31 212.19,302.9 212.99,308 213.79,312.13 214.59,316.06 215.4,317.23 216.2,320.7 217,323.81 217.8,326.86 218.6,315.19 219.4,299.17 220.2,284.94 221,274.19 221.8,265.08 222.6,257.13 223.4,249.61 224.2,238.55 225.01,228.23 225.81,227.33 226.61,233.09 227.41,244.51 228.21,257.62 229.01,268.67 229.81,279.36 230.61,286.01 231.41,282.73 232.21,268.13 233.01,249.2 233.81,227.58 234.61,208.56 235.42,192.57 236.22,187.09 237.02,186.87 237.82,191.27 238.62,197.74 239.42,202.29 240.22,198.98 241.02,191 241.82,183.1 242.62,171.67 243.42,163.13 244.22,164.81 245.03,184.65 245.83,218.24 246.63,260.03 247.43,299.74 248.23,328.75 249.03,338 249.83,341.76 250.63,341.06 251.43,337.86 252.23,331.28 253.03,318.75 253.83,294.45 254.63,273.39 255.44,252.25 256.24,226.99 257.04,199.77 257.84,176.1 258.64,161.08 259.44,154.21 260.24,159.68 261.04,171.64 261.84,189.41 262.64,208.45 263.44,230.05 264.24,253.1 265.05,272.31 265.85,287.29 266.65,301.16 267.45,307.91 268.25,314.03 269.05,320.81 269.85,324.39 270.65,325.16 271.45,323.5 272.25,324.61 273.05,326.07 273.85,325.82 274.65,326.82 275.46,326.98 276.26,327.81 277.06,330.89 277.86,334.65 278.66,337.06 279.46,339.25 280.26,337.88 281.06,335.79 281.86,334.04 282.66,330.76 283.46,327.64 284.26,327.36 285.07,331.9 285.87,340.96 286.67,352.86 287.47,367 288.27,380.6 289.07,393.21 289.87,405.6 290.67,417.62 291.47,410.68 292.27,400.44 293.07,388.25 293.87,376.1 294.67,361.82 295.48,344.9 296.28,325.3 297.08,302.17 297.88,279.16 298.68,259.86 299.48,247.36 300.28,246.81 301.08,256.18 301.88,271.92 302.68,289.27 303.48,307.55 304.28,326.84 305.09,347.4 305.89,367.5 306.69,382.79 307.49,388.29 308.29,393.29 309.09,399.31 309.89,403.48 310.69,398.15 311.49,389.17 312.29,381.18 313.09,372.85 313.89,365.04 314.69,357.39 315.5,347.4 316.3,341.54 317.1,338.19 317.9,337.99 318.7,342.83 319.5,354.89 320.3,372.36 321.1,385.33 321.9,379.46 322.7,373.46 323.5,371 324.3,377.41 325.11,391.06 325.91,406.51 326.71,418.97 327.51,426.4 328.31,428.21 329.11,421.4 329.91,411.02 330.71,402.03 331.51,396.8 332.31,401.07 333.11,417.6 333.91,439.03 334.71,452.09 335.52,455.94 336.32,457.55 337.12,457.72 337.92,453.43 338.72,450.66 339.52,451.56 340.32,453.63 341.12,456.01 341.92,436.93 342.72,416.19 343.52,391.44 344.32,366.65 345.13,347.69 345.93,337.01 346.73,336.73 347.53,342.2 348.33,349.5 349.13,360.27 349.93,375.35 350.73,392.21 351.53,408.64 352.33,423.12 353.13,439.43 353.93,458.51 354.73,478.76 355.54,477.98 356.34,476.7 357.14,474.38 357.94,469.85 358.74,463.58 359.54,454.61 360.34,443.22 361.14,427.65 361.94,408.25 362.74,390.6 363.54,376.55 364.34,365.55 365.15,357.83 365.95,356.57 366.75,359.71 367.55,370.1 368.35,385.52 369.15,404.57 369.95,420.71 370.75,409.06 371.55,398 372.35,389 373.15,379.42 373.95,370.97 374.75,366.26 375.56,363.38 376.36,363.51 377.16,363.31 377.96,362.34 378.76,359.33 379.56,353.5 380.36,348.9 381.16,348.73 381.96,353.57 382.76,370.33 383.56,396.43 384.36,428.96 385.17,463.33 385.97,493.73 386.77,519.01 387.57,536.09 388.37,525.03 389.17,501.41 389.97,475.18 390.77,452.29 391.57,437.27 392.37,434.41 393.17,425.4 393.97,412.4 394.77,400.33 395.58,389.15 396.38,378.94 397.18,368.25 397.98,359.47 398.78,356.32 399.58,358.89 400.38,365.65 401.18,373.45 401.98,379.94 402.78,385.52 403.58,392.74 404.38,401.3 405.19,412.03 405.99,424.64 406.79,441.01 407.59,448.68 408.39,446.54 409.19,441.5 409.99,429.89 410.79,413.78 411.59,392.87 412.39,372.39 413.19,356.27 413.99,340.86 414.79,331.95 415.6,333.68 416.4,344.46 417.2,360.83 418,377.6 418.8,390.32 419.6,394.86 420.4,389.56 421.2,382.29 422,374.23 422.8,364.82 423.6,353.93 424.4,344.99 425.21,338.11 426.01,331.26 426.81,324.94 427.61,316.82 428.41,308.59 429.21,301.22 430.01,293.95 430.81,289.33 431.61,287.76 432.41,289.11 433.21,292.71 434.01,299.27 434.81,309.77 435.62,318.87 436.42,320.27 437.22,324.3 438.02,327.5 438.82,329.83 439.62,325.45 440.42,318.69 441.22,309.92 442.02,299.7 442.82,289.2 443.62,281.64 444.42,276.25 445.23,273.48 446.03,276.31 446.83,285.85 447.63,302.38 448.43,321.48 449.23,348.31 450.03,381.11 450.83,421.73 451.63,465.57 452.43,492.17 453.23,493.73 454.03,491.07 454.83,488.56 455.64,485.8 456.44,480.45 457.24,470.12 458.04,456.56 458.84,440.89 459.64,422.8 460.44,402.99 461.24,381.89 462.04,367.04 462.84,357.67 463.64,356.5 464.44,358.68 465.25,359.09 466.05,362.39 466.85,365.87 467.65,369.42 468.45,369.96 469.25,366.14 470.05,361.26 470.85,357.42 471.65,358.18 472.45,367.65 473.25,374.78 474.05,377.88 474.85,391.26 475.66,405.9 476.46,419.53 477.26,431.34 478.06,438.92 478.86,441.55 479.66,435.97 480.46,427.42 481.26,419.57 482.06,414.62 482.86,411.43 483.66,411.27 484.46,412.78 485.27,419.19 486.07,437.99 486.87,467.48 487.67,497.26 488.47,521.71 489.27,526.09 490.07,536.24 490.87,546.36 491.67,551.9 492.47,550.42 493.27,542.51 494.07,529.55 494.87,520.46 495.68,507.43 496.48,491.17 497.28,474.41 498.08,460.89 498.88,457.64 499.68,459.71 500.48,467.41 501.28,474.85 502.08,481.53 502.88,487.45 503.68,473.87 504.48,456.19 505.29,436.12 506.09,419.34 506.89,408.45 507.69,402.71 508.49,403.13 509.29,409.11 510.09,417.94 510.89,426.25 511.69,431.81 512.49,433.72 513.29,431.86 514.09,423.64 514.89,412.1 515.7,396.96 516.5,382.14 517.3,366.34 518.1,355.77 518.9,352.52 519.7,357.94 520.5,368.7 521.3,384.46 522.1,400.19 522.9,416.72 523.7,436.27 524.5,459.84 525.31,478.11 526.11,489.26 526.91,499.6 527.71,508.63 528.51,516.76 529.31,519.06 530.11,516.45 530.91,510.96 531.71,491.92 532.51,471.61 533.31,455.65 534.11,438.31 534.91,419.09 535.72,404.49 536.52,392.7 537.32,384.45 538.12,380.04 538.92,382.09 539.72,384.1 540.52,386.46 541.32,387.65 542.12,390.79 542.92,395.86 543.72,403.66 544.52,414.42 545.33,425.76 546.13,440.45 546.93,449.02 547.73,457.9 548.53,467.15 549.33,469.75 550.13,471.22 550.93,468.53 551.73,464.51 552.53,461.59 553.33,457.26 554.13,451.59 554.93,444.9 555.74,438.61 556.54,429.55 557.34,389.72 558.14,350.93 558.94,318.18 559.74,295.83 560.54,283.34 561.34,281.19 562.14,282.61 562.94,283.38 563.74,278.97 564.54,273.41 565.35,268.96 566.15,266.6 566.95,269.26 567.75,279.97 568.55,297.15 569.35,318.41 570.15,342.5 570.95,353.31 571.75,347.69 572.55,326.87 573.35,307.39 574.15,287.01 574.95,267.16 575.76,249.51 576.56,236.41 577.36,226.39 578.16,219.79 578.96,217.32 579.76,224.66 580.56,235.37 581.36,246.29 582.16,254.81 582.96,259.92 583.76,262.73 584.56,262.92 585.37,262.59 586.17,262.38 586.97,263 587.77,263.39 588.57,268.75 589.37,273.81 590.17,271.27 590.97,234.87 591.77,204.24 592.57,182.06 593.37,163.93 594.17,146.92 594.97,130.68 595.78,117.7 596.58,107.69 597.38,101.58 598.18,100 598.98,100.55 599.78,105.14 600.58,111.17 601.38,118.89 602.18,126.9 602.98,138.54 603.78,153.6 604.58,172.41 605.39,194.61 606.19,219.45 606.99,244.8 607.79,270.1 608.59,290.03 609.39,291.88 610.19,293.22 610.99,298.35 611.79,308.94 612.59,319.38 613.39,324.02 614.19,326.86 614.99,324.82 615.8,318.75 616.6,310.89 617.4,303.32 618.2,295.13 619,283.92 619.8,270.9 620.6,255.53 621.4,243.51 622.2,234.56 623,229.33 623.8,227.79 624.6,227.33 625.41,228.33 626.21,232.03 627.01,238.31 627.81,243.28 628.61,252.07 629.41,245.69 630.21,233.85 631.01,222.25 631.81,210.05 632.61,200.15 633.41,192.63 634.21,187.49 635.02,186.87 635.82,187.91 636.62,192.84 637.42,183.27 638.22,173.71 639.02,167.29 639.82,163.13 640.62,163.38 641.42,168.7 642.22,178.58 643.02,191.8 643.82,207.13 644.62,220.04 645.43,232 646.23,240.81 647.03,248.68 647.83,257.03 648.63,269.68 649.43,290.47 650.23,310.81 651.03,302.39 651.83,295.77 652.63,288.08 653.43,273.75 654.23,253.85 655.04,225.19 655.84,196.55 656.64,172 657.44,157.03 658.24,154.21 659.04,163.58 659.84,181.28 660.64,202.82 661.44,224.36 662.24,245.7 663.04,263.06 663.84,277.19 664.64,291.38 665.45,305.09 666.25,309.94 667.05,314.48 667.85,322.33 668.65,324.27 669.45,324.87 670.25,326.07 671.05,325.82 671.85,326.82 672.65,327.67 673.45,326.98 674.25,327.54 675.06,327.81 675.86,328.84 676.66,332.3 677.46,336.26 678.26,338.34 679.06,339.25 679.86,338.81 680.66,337.88 681.46,335.16 682.26,329.38 683.06,327.36 683.86,329.45 684.66,338.42 685.47,349.82 686.27,363.59 687.07,380.6 687.87,398.17 688.67,414.12 689.47,423.47 690.27,405.37 691.07,378.62 691.87,351.6 692.67,324.97 693.47,300.76 694.27,279.57 695.08,261.81 695.88,249.85 696.68,246.81 697.48,250.28 698.28,258.21 699.08,269.65 699.88,284.64 700.68,298.87 701.48,314.11 702.28,331 703.08,345.83 703.88,358.31 704.68,367.6 705.49,375.52 706.29,384.13 707.09,390.18 707.89,394.92 708.69,399.14 709.49,402.56 710.29,392.76 711.09,375.2 711.89,358.69 712.69,345.17 713.49,337.99 714.29,343.43 715.1,362.33 715.9,386.54 716.7,411.35 717.5,431.61 718.3,440.1 719.1,438.01 719.9,430.67 720.7,418.49 721.5,405.93 722.3,395.63 723.1,389.15 723.9,382.67 724.7,376.7 725.51,371 726.31,372.02 727.11,380.37 727.91,396.8 728.71,401.13 729.51,408.13 730.31,415.05 731.11,421.95 731.91,427.11 732.71,432.89 733.51,439.32 734.31,447.35 735.12,452.67 735.92,450.66 736.72,451.87 737.52,456.88 738.32,462.5 739.12,465.9 739.92,462.46 740.72,459.45 741.52,450.96 742.32,437.77 743.12,420.74 743.92,399.57 744.72,376.25 745.53,355.81 746.33,343.5 747.13,336.73 747.93,337.37 748.73,349.02 749.53,370.53 750.33,397.02 751.13,428.51 751.93,459.07 752.73,485.66 753.53,503.46 754.33,508.26 755.14,505.01 755.94,496.02 756.74,481.12 757.54,448.66 758.34,419.39 759.14,393.63 759.94,374.56 760.74,362.53 761.54,357.55 762.34,356.57 763.14,361.88 763.94,373.64 764.74,388.49 765.55,404.8 766.35,417.64 767.15,426.84 767.95,431.06 768.75,430.31 769.55,428.45 770.35,423.6 771.15,417.26 771.95,408.94 772.75,396.72 773.55,384.69 774.35,373.65 775.16,365.64 775.96,363.38 776.76,352.82 777.56,348.73 778.36,348.95 779.16,354.49 779.96,360.32 780.76,361.43 781.56,367.3 782.36,376.48 783.16,393.09 783.96,414.99 784.76,439.08 785.57,461.12 786.37,481.13 787.17,496.61 787.97,500.17 788.77,477.28 789.57,456.38 790.37,443.67 791.17,436.59 791.97,434.41 792.77,434.6 793.57,434.97 794.37,436.25 795.18,432.69 795.98,421.18 796.78,399.85 797.58,377.59 798.38,362.07 799.18,356.32 799.98,364.76 800.78,380.61 801.58,404.44 802.38,425.53 803.18,445.14 803.98,461.06 804.78,467.41 805.59,444.11 806.39,418.05 807.19,396.68 807.99,384.1 808.79,377.34 809.59,373.08 810.39,369.07 811.19,365.04 811.99,361.61 812.79,357.91 813.59,353.53 814.39,351.6 815.2,349.7 816,348.65 816.8,348.89 817.6,346.67 818.4,341.74 819.2,336.03 820,331.97" fill="none" stroke="blue" stroke-width="1"/>
  <polyline points="20,494.86 20.8,478.47 21.6,461.51 22.4,444.9 23.2,435.75 24,435.83 24.8,443.35 25.61,423.67 26.41,406.17 27.21,391.01 28.01,371.02 28.81,349.39 29.61,330.71 30.41,312.45 31.21,299.25 32.01,293.38 32.81,296.19 33.61,304.23 34.41,315.97 35.22,329.22 36.02,345.04 36.82,362.97 37.62,383.33 38.42,404.75 39.22,423.89 40.02,442.86 40.82,459.59 41.62,474.99 42.42,485.54 43.22,489.41 44.02,474.81 44.82,456.36 45.63,443.34 46.43,423.73 47.23,395.83 48.03,378.3 48.83,369.54 49.63,366.43 50.43,369.28 51.23,371.33 52.03,372.72 52.83,375.4 53.63,378.43 54.43,383.22 55.24,383.73 56.04,381.47 56.84,379.91 57.64,376.8 58.44,371.38 59.24,366.94 60.04,360.18 60.84,347.92 61.64,325.31 62.44,305.18 63.24,289.04 64.04,276.96 64.84,268.91 65.65,269.75 66.45,279.03 67.25,291.49 68.05,306.64 68.85,323.14 69.65,337.07 70.45,347.26 71.25,355.76 72.05,366.15 72.85,378.33 73.65,382.06 74.45,390.21 75.26,399.45 76.06,410.31 76.86,414.73 77.66,398.66 78.46,379.38 79.26,356.48 80.06,334.21 80.86,317.02 81.66,307.76 82.46,306.01 83.26,305.36 84.06,302.8 84.86,299.05 85.67,294.77 86.47,289.9 87.27,283.33 88.07,277.07 88.87,272.61 89.67,274.6 90.47,283.43 91.27,295.66 92.07,311.28 92.87,330.11 93.67,349.99 94.47,370.48 95.28,386.93 96.08,387.42 96.88,388.47 97.68,385.47 98.48,382.39 99.28,377.34 100.08,374.55 100.88,374.63 101.68,379.78 102.48,391.31 103.28,411.96 104.08,438.81 104.88,469.83 105.69,499.97 106.49,523.76 107.29,536.71 108.09,539.61 108.89,527.48 109.69,497.62 110.49,468.3 111.29,439.94 112.09,417.49 112.89,398.11 113.69,381.27 114.49,368.64 115.3,358.91 116.1,354.08 116.9,356.35 117.7,363.28 118.5,373.71 119.3,384.18 120.1,391.67 120.9,398.88 121.7,407.89 122.5,416.29 123.3,420.69 124.1,415.13 124.9,406.74 125.71,397.35 126.51,386 127.31,373.27 128.11,359.68 128.91,346.41 129.71,338.2 130.51,336.23 131.31,338.89 132.11,345.47 132.91,347.4 133.71,351.81 134.51,358.15 135.32,363.95 136.12,367.78 136.92,370.29 137.72,370.37 138.52,368.91 139.32,364.17 140.12,360.29 140.92,351.67 141.72,342.29 142.52,334.83 143.32,328.09 144.12,323.99 144.92,323.05 145.73,323.1 146.53,327.49 147.33,335.47 148.13,343.2 148.93,352.85 149.73,360.83 150.53,367.54 151.33,356.2 152.13,340.6 152.93,323.86 153.73,310.76 154.53,306.05 155.34,303.9 156.14,299.78 156.94,300.75 157.74,302.28 158.54,303.87 159.34,305.12 160.14,303.87 160.94,301.28 161.74,299.05 162.54,298.46 163.34,300.66 164.14,308.04 164.94,313.23 165.75,311.34 166.55,303.2 167.35,289.77 168.15,271.9 168.95,257.84 169.75,248.24 170.55,245.13 171.35,244.85 172.15,247.57 172.95,254.89 173.75,265.33 174.55,274.62 175.36,284.18 176.16,295.29 176.96,283.69 177.76,269.79 178.56,256.82 179.36,242.92 180.16,231.82 180.96,223.34 181.76,221.19 182.56,230.61 183.36,245.71 184.16,263.79 184.96,278.4 185.77,289.09 186.57,293.94 187.37,293.02 188.17,282.55 188.97,254.68 189.77,228.69 190.57,207.45 191.37,196.69 192.17,192.38 192.97,192.32 193.77,192.38 194.57,191.31 195.38,191.44 196.18,194.96 196.98,198.99 197.78,204.1 198.58,212.4 199.38,219.35 200.18,204.43 200.98,189 201.78,177.93 202.58,169.55 203.38,164.4 204.18,163.71 204.98,168.31 205.79,176.66 206.59,188.08 207.39,202.74 208.19,218.39 208.99,225.19 209.79,217.44 210.59,210.33 211.39,199.91 212.19,186.63 212.99,169.92 213.79,155.55 214.59,148.39 215.4,151.29 216.2,164.85 217,188.17 217.8,209.94 218.6,232.09 219.4,253.12 220.2,272.12 221,282.54 221.8,284.6 222.6,284.44 223.4,285.76 224.2,290.85 225.01,298.87 225.81,310.95 226.61,332.16 227.41,342.87 228.21,345.31 229.01,348.82 229.81,351.06 230.61,352.11 231.41,355.75 232.21,360.63 233.01,364.94 233.81,366.79 234.61,369.21 235.42,373.18 236.22,377.67 237.02,383.12 237.82,385.32 238.62,371.53 239.42,359.7 240.22,349.67 241.02,343.15 241.82,336.26 242.62,329.58 243.42,322.15 244.22,310.45 245.03,295.14 245.83,281.88 246.63,274.18 247.43,274.31 248.23,279.7 249.03,290.64 249.83,305.94 250.63,324.25 251.43,342.82 252.23,361.81 253.03,377.05 253.83,384.57 254.63,389.01 255.44,397.71 256.24,407.43 257.04,416.37 257.84,413.78 258.64,412.34 259.44,406.97 260.24,401.42 261.04,399.31 261.84,398.33 262.64,399.5 263.44,402.9 264.24,410.03 265.05,420.04 265.85,432.6 266.65,446.43 267.45,463.32 268.25,481.29 269.05,500.76 269.85,513.1 270.65,505.77 271.45,494.39 272.25,478.32 273.05,455.77 273.85,429.27 274.65,405.13 275.46,384.54 276.26,370.39 277.06,363.57 277.86,364.84 278.66,371.13 279.46,379.51 280.26,385.42 281.06,386.16 281.86,380.33 282.66,378.2 283.46,384.77 284.26,398.46 285.07,414.42 285.87,430.74 286.67,443.32 287.47,453.08 288.27,461.08 289.07,466.62 289.87,469.63 290.67,473.78 291.47,480.96 292.27,463.44 293.07,439.48 293.87,411.93 294.67,380.17 295.48,347.8 296.28,319.72 297.08,299.26 297.88,284.9 298.68,278.27 299.48,280.06 300.28,285.93 301.08,292.9 301.88,297.8 302.68,298.26 303.48,293.93 304.28,287.6 305.09,281.14 305.89,280.6 306.69,289.12 307.49,311.61 308.29,344.92 309.09,385.11 309.89,423.56 310.69,449.48 311.49,459.83 312.29,449.76 313.09,434.72 313.89,416.27 314.69,401.78 315.5,393.56 316.3,391.34 317.1,392.87 317.9,395.38 318.7,396.18 319.5,396.05 320.3,399.34 321.1,402.89 321.9,413.92 322.7,428.79 323.5,448.62 324.3,469.57 325.11,490.93 325.91,509.12 326.71,519.2 327.51,526.89 328.31,532.78 329.11,533.71 329.91,525.12 330.71,519 331.51,506.12 332.31,493.44 333.11,478.21 333.91,460.78 334.71,440.67 335.52,429.29 336.32,423.33 337.12,427.71 337.92,436.66 338.72,449.29 339.52,463.38 340.32,475.03 341.12,487.2 341.92,497.66 342.72,501.66 343.52,487.66 344.32,457.53 345.13,426.91 345.93,400.96 346.73,383.01 347.53,372.9 348.33,372.34 349.13,380.92 349.93,391.67 350.73,402.22 351.53,403.77 352.33,396.99 353.13,384.5 353.93,367.08 354.73,347.99 355.54,331.43 356.34,322.47 357.14,327.22 357.94,341.59 358.74,359.28 359.54,355.98 360.34,358.4 361.14,368.14 361.94,377.86 362.74,385.79 363.54,394.03 364.34,401.75 365.15,407.27 365.95,415.29 366.75,422.96 367.55,429.08 368.35,434.97 369.15,441.22 369.95,447.52 370.75,452.79 371.55,435.04 372.35,403.34 373.15,369.13 373.95,333.87 374.75,302.63 375.56,275.88 376.36,254.42 377.16,238.89 377.96,229.22 378.76,224.91 379.56,228.29 380.36,233.9 381.16,238.24 381.96,243.03 382.76,248.18 383.56,256.78 384.36,266.44 385.17,275.94 385.97,287.98 386.77,298.53 387.57,310.4 388.37,318.3 389.17,322.03 389.97,322.42 390.77,322.6 391.57,325.04 392.37,312.22 393.17,298.91 393.97,290.71 394.77,288.17 395.58,290.94 396.38,295.62 397.18,300.36 397.98,305.32 398.78,309.17 399.58,312.73 400.38,316.09 401.18,317.43 401.98,313.89 402.78,309.81 403.58,307.5 404.38,306.85 405.19,310.15 405.99,318.23 406.79,333.48 407.59,352.72 408.39,370.7 409.19,392.28 409.99,412.39 410.79,430.46 411.59,446.35 412.39,460.45 413.19,470.28 413.99,474.85 414.79,474.55 415.6,475.06 416.4,479.6 417.2,453.52 418,440.33 418.8,435.75 419.6,435.83 420.4,438.8 421.2,443.67 422,448.05 422.8,449.37 423.6,449.99 424.4,448.44 425.21,445.05 426.01,438.61 426.81,427.93 427.61,414.69 428.41,399.52 429.21,381.18 430.01,358.1 430.81,335.19 431.61,316.3 432.41,301.93 433.21,293.38 434.01,296.23 434.81,313.27 435.62,341.89 436.42,377.49 437.22,413.48 438.02,447.37 438.82,472.95 439.62,475.18 440.42,464.16 441.22,450.82 442.02,437.72 442.82,442.38 443.62,468.71 444.42,510.07 445.23,553.01 446.03,585.27 446.83,600 447.63,590.75 448.43,560.55 449.23,515.92 450.03,462.25 450.83,409.21 451.63,375.97 452.43,366.43 453.23,374.95 454.03,381.12 454.83,383.72 455.64,377.72 456.44,367.43 457.24,356.6 458.04,349.1 458.84,341.88 459.64,334.67 460.44,330.27 461.24,324.38 462.04,313.57 462.84,299.51 463.64,283.16 464.44,272.5 465.25,268.91 466.05,272.19 466.85,281.72 467.65,296.53 468.45,316.53 469.25,337.72 470.05,358.1 470.85,374.64 471.65,377.5 472.45,378.87 473.25,378.33 474.05,378.73 474.85,383.74 475.66,391.87 476.46,402.66 477.26,413.46 478.06,416.83 478.86,411.48 479.66,404.14 480.46,396.37 481.26,384.65 482.06,360.74 482.86,335.36 483.66,316 484.46,291.66 485.27,274.65 486.07,272.61 486.87,285.36 487.67,307.69 488.47,336.81 489.27,366.48 490.07,387.85 490.87,394.99 491.67,395.52 492.47,393.81 493.27,389.42 494.07,386.34 494.87,386.49 495.68,379 496.48,374.55 497.28,374.63 498.08,376.22 498.88,380.96 499.68,387.21 500.48,395.6 501.28,409.09 502.08,422.95 502.88,436.91 503.68,451.69 504.48,467.5 505.29,483.81 506.09,500.13 506.89,501.48 507.69,492.02 508.49,479.4 509.29,467.62 510.09,454.93 510.89,440.16 511.69,422.1 512.49,401.36 513.29,382.16 514.09,368.51 514.89,358.27 515.7,354.08 516.5,357.67 517.3,365.13 518.1,378.68 518.9,395.35 519.7,413.41 520.5,424.37 521.3,428.21 522.1,413.63 522.9,393.95 523.7,374.68 524.5,359.49 525.31,348.62 526.11,342.31 526.91,338.3 527.71,336.79 528.51,336.23 529.31,340.25 530.11,344.53 530.91,347.99 531.71,347.03 532.51,345.47 533.31,348.57 534.11,354.29 534.91,360.98 535.72,366.65 536.52,361.63 537.32,359.46 538.12,358.27 538.92,358.06 539.72,355.35 540.52,347.64 541.32,337.19 542.12,328.16 542.92,323.05 543.72,323.1 544.52,328.18 545.33,337.36 546.13,347.92 546.93,358.48 547.73,352.02 548.53,342.7 549.33,333.4 550.13,322.74 550.93,311.73 551.73,306.05 552.53,307.84 553.33,312.42 554.13,315.47 554.93,315.69 555.74,315.06 556.54,311.55 557.34,304.48 558.14,299.78 558.94,300.75 559.74,299.05 560.54,298.46 561.34,303.41 562.14,299.2 562.94,291.57 563.74,285.15 564.54,279.92 565.35,274.69 566.15,265.71 566.95,256.88 567.75,250.63 568.55,246.24 569.35,245.13 570.15,244.85 570.95,245.61 571.75,253.61 572.55,266.67 573.35,283.22 574.15,298.04 574.95,310.84 575.76,316.93 576.56,313.2 577.36,302.66 578.16,288.44 578.96,268.95 579.76,248.29 580.56,230.56 581.36,221.19 582.16,223.27 582.96,239.06 583.76,264.54 584.56,280.61 585.37,281.3 586.17,279.57 586.97,274.73 587.77,262.1 588.57,242.05 589.37,218.87 590.17,200.82 590.97,192.32 591.77,191.31 592.57,200.82 593.37,221.59 594.17,243.85 594.97,270.8 595.78,291.71 596.58,300.55 597.38,291.14 598.18,268.5 598.98,240.03 599.78,207.87 600.58,178.63 601.38,164.4 602.18,163.71 602.98,174.42 603.78,190.84 604.58,205.86 605.39,216.36 606.19,221.68 606.99,218.47 607.79,203.07 608.59,184.64 609.39,166.24 610.19,153.91 610.99,148.39 611.79,152.34 612.59,158.45 613.39,167.32 614.19,172.6 614.99,178.86 615.8,187.01 616.6,190.65 617.4,189.56 618.2,190.18 619,197.18 619.8,212.88 620.6,236.56 621.4,267.52 622.2,303.74 623,331.66 623.8,344.74 624.6,355.57 625.41,358.14 626.21,354.45 627.01,349.41 627.81,344.37 628.61,342.28 629.41,348.71 630.21,360.33 631.01,379.23 631.81,395.17 632.61,408.68 633.41,418.7 634.21,420.61 635.02,414.35 635.82,402.97 636.62,387.53 637.42,374.28 638.22,365.77 639.02,360.61 639.82,358.12 640.62,339.65 641.42,318.51 642.22,297.97 643.02,281.78 643.82,274.18 644.62,274.31 645.43,284.34 646.23,299.2 647.03,313.24 647.83,327.85 648.63,342.22 649.43,355.35 650.23,367.01 651.03,376.73 651.83,384.75 652.63,390.55 653.43,400.32 654.23,410.61 655.04,416.72 655.84,417.07 656.64,412.95 657.44,412.34 658.24,411.64 659.04,410.12 659.84,404.94 660.64,399.84 661.44,398.33 662.24,407.73 663.04,423.91 663.84,444.86 664.64,465.76 665.45,492.03 666.25,517.59 667.05,533.88 667.85,541.46 668.65,534.85 669.45,508.15 670.25,479.17 671.05,456.82 671.85,438.36 672.65,420.37 673.45,404.45 674.25,394.22 675.06,381.78 675.86,370.13 676.66,363.57 677.46,363.84 678.26,366.07 679.06,369.76 679.86,374.34 680.66,379.31 681.46,382.49 682.26,380.42 683.06,378.2 683.86,378.4 684.66,381.85 685.47,391.93 686.27,410.42 687.07,433.38 687.87,462.1 688.67,495.04 689.47,502.27 690.27,505.28 691.07,507.18 691.87,503.44 692.67,494.23 693.47,477.53 694.27,451.07 695.08,415.88 695.88,373.56 696.68,334.45 697.48,302.63 698.28,282.26 699.08,278.27 699.88,281.14 700.68,280.6 701.48,289.69 702.28,304.32 703.08,319.04 703.88,330.21 704.68,334.61 705.49,340.86 706.29,350.76 707.09,365.23 707.89,386.58 708.69,410.76 709.49,433.74 710.29,454.89 711.09,474.41 711.89,489.21 712.69,495.67 713.49,480.24 714.29,450.46 715.1,422.44 715.9,401.66 716.7,391.34 717.5,393.67 718.3,400.01 719.1,410.55 719.9,424.24 720.7,440.34 721.5,456.83 722.3,466.32 723.1,475.63 723.9,485.02 724.7,497.6 725.51,510.18 726.31,523.14 727.11,524.66 727.91,510.38 728.71,495.62 729.51,480.74 730.31,468.32 731.11,460.67 731.91,456.7 732.71,452.1 733.51,448.2 734.31,441.81 735.12,432.62 735.92,425.41 736.72,423.33 737.52,426.45 738.32,434.99 739.12,448.71 739.92,470.36 740.72,495.44 741.52,498.96 742.32,496.26 743.12,489.22 743.92,476.6 744.72,460.85 745.53,443.85 746.33,428.18 747.13,411.12 747.93,396.99 748.73,382.19 749.53,370.13 750.33,343.36 751.13,328.65 751.93,322.47 752.73,323.9 753.53,331.47 754.33,342.55 755.14,355.82 755.94,365.87 756.74,370.53 757.54,365.78 758.34,361.02 759.14,359.76 759.94,361.28 760.74,360.28 761.54,358.11 762.34,355.98 763.14,361.03 763.94,369.01 764.74,381.22 765.55,399.67 766.35,420.55 767.15,439.21 767.95,444.19 768.75,438.17 769.55,433.37 770.35,427.08 771.15,417.82 771.95,407.52 772.75,391.34 773.55,370.35 774.35,347.68 775.16,323.19 775.96,299.81 776.76,278.67 777.56,259.14 778.36,244.04 779.16,234.98 779.96,227.52 780.76,224.91 781.56,227.87 782.36,235.44 783.16,248.49 783.96,261.15 784.76,276.39 785.57,290.74 786.37,302.77 787.17,313.15 787.97,322.78 788.77,322.42 789.57,322.6 790.37,323 791.17,325.56 791.97,328.93 792.77,333.81 793.57,338.5 794.37,341.68 795.18,340.89 795.98,334.41 796.78,322.54 797.58,308.08 798.38,295.37 799.18,288.17 799.98,294.27 800.78,307.5 801.58,306.85 802.38,309.76 803.18,316 803.98,323.91 804.78,331.28 805.59,339.12 806.39,348.63 807.19,360.23 807.99,373.58 808.79,390.88 809.59,410.99 810.39,429.68 811.19,448.23 811.99,473.06 812.79,489.51 813.59,502.5 814.39,516.65 815.2,528.43 816,534.82 816.8,536.19 817.6,535.36 818.4,531.49 819.2,525.01 820,512.34" fill="none" stroke="green" stroke-width="1"/>
</svg>
